<svg version="1.2" xmlns="http://www.w3.org/2000/svg" viewBox="0 0 1690 640" width="1690" height="640">
	<title>drake-svg</title>
	<style>
		tspan { white-space:pre } 
		.s0 { fill: #032630 } 
		.s1 { fill: #07404b } 
		.s2 { fill: #0a5e5e } 
		.s3 { fill: #38887f } 
		.s4 { fill: #dd7410 } 
		.s5 { fill: #f77020 } 
		.s6 { fill: #fdae00 } 
		.s7 { fill: #f9e6c9 } 
		.s8 { fill: #fcfbfb } 
		.t9 { font-size: 200px;fill: #000000;font-weight: 900;font-family: "EncodeSans-Black", "Encode Sans" } 
	</style>
	<g>
		<path class="s0" d="m299.1 590.3c-11.1-11.5-35.6-37.8-42.8-46-10-11.4-24.4-28.5-25.9-30.9-0.8-1.2-4.7-3.9-8.7-6-4-2-12.4-7.3-18.9-11.6-46.4-31.6-79.2-81.6-89.2-136.3-15.5-84.3 20.4-168.7 92.4-216.8 18.9-12.7 17.7-11.4 28.8-30.2 4.8-8 5.9-9.3 9.3-10 1.5-0.4 5-2.4 7.8-4.6 2.7-2.1 5.4-3.9 6-3.9 0.5 0 2.9-2.8 5.2-6.2 2.3-3.5 8.8-10.8 14.3-16.3 10.8-10.6 19.5-16.4 34.4-23 10.6-4.6 14.4-5.3 17.7-3.1 4 2.6 4.8 5.9 3.4 14.3-0.6 4-0.9 7.6-0.6 7.9 0.3 0.3 3.9 0.1 7.9-0.6 10.8-1.6 14.8 0.2 14.8 6.6 0 3 0 3 7.6 4.2 8.5 1.3 14.6 3.7 20 7.8 3.4 2.6 3.6 3.1 3 7-0.5 4.1-0.4 4.3 3.7 6.7 6.7 4 9.9 7.9 9.1 11.1-0.3 1.4-1 2.9-1.6 3.2-0.5 0.3 0.9 2.6 3.2 5 2.2 2.4 4 5 4 5.8 0 0.9 3.8 3.4 9.3 6.2 70.7 35.3 116.7 110.1 116.7 189.7 0 77.4-41.1 147.2-109.2 185.7-6.7 3.8-10.5 7.3-28.5 26.2-24.7 26-26.1 27.3-31.1 26.4-3.2-0.5-4.2-0.1-8.2 3.2-2.5 2.1-9.4 7.8-15.5 12.7-6 4.9-14.4 11.9-18.5 15.6-10.9 9.7-10.7 9.6-19.9 0.2z"/>
	</g>
	<g>
		<path fill-rule="evenodd" class="s1" d="m299.1 590.3c-11.1-11.5-35.6-37.8-42.8-46-10-11.4-24.4-28.5-25.9-30.9-0.8-1.2-4.7-3.9-8.7-6-4-2-12.4-7.3-18.9-11.6-46.4-31.6-79.2-81.6-89.2-136.3-15.5-84.3 20.4-168.7 92.4-216.8 18.9-12.7 17.7-11.4 28.8-30.2 4.8-8 5.9-9.3 9.3-10 1.5-0.4 5-2.4 7.8-4.6 2.7-2.1 5.4-3.9 6-3.9 0.5 0 2.9-2.8 5.2-6.2 2.3-3.5 8.8-10.8 14.3-16.3 10.8-10.6 19.5-16.4 34.4-23 10.6-4.6 14.4-5.3 17.7-3.1 4 2.6 4.8 5.9 3.4 14.3-0.6 4-0.9 7.6-0.6 7.9 0.3 0.3 3.9 0.1 7.9-0.6 10.8-1.6 14.8 0.2 14.8 6.6 0 3 0 3 7.6 4.2 8.5 1.3 14.6 3.7 20 7.8 3.4 2.6 3.6 3.1 3 7-0.5 4.1-0.4 4.3 3.7 6.7 6.7 4 9.9 7.9 9.1 11.1-0.3 1.4-1 2.9-1.6 3.2-0.5 0.3 0.9 2.6 3.2 5 2.2 2.4 4 5 4 5.8 0 0.9 3.8 3.4 9.3 6.2 70.7 35.3 116.7 110.1 116.7 189.7 0 77.4-41.1 147.2-109.2 185.7-6.7 3.8-10.5 7.3-28.5 26.2-24.7 26-26.1 27.3-31.1 26.4-3.2-0.5-4.2-0.1-8.2 3.2-2.5 2.1-9.4 7.8-15.5 12.7-6 4.9-14.4 11.9-18.5 15.6-10.9 9.7-10.7 9.6-19.9 0.2zm29.9-17.3c12.7-10.5 28.8-23.2 30.8-24.4 0.8-0.5 2.1-0.1 3.3 1 2.2 2-1.4 5.3 31.5-29.1 11-11.6 20.7-22.1 21.4-23.5 2.1-3.8 1.6-15.7-1.5-32-5-27.2-4.3-48.6 2.6-76 3.8-15.1 8.2-26.8 15.4-41 5.1-9.9 6.6-11.9 17.9-23.2 17.8-17.7 22-27.1 21.9-48.8 0-9.8-0.4-12.7-2.7-19.3-5-14.8-11.2-21.9-28.9-33.4-15.3-10-20.1-13.9-24.7-19.7l-4-5.3 1.9-8.4c2.6-11.2 4.5-29 3.6-34.7-1.2-8.3-4.3-12.1-14.7-18.2-5.7-3.3-6.8-5-6.8-10.4 0-2.2-1.2-4.1-4.5-7.3-2.5-2.3-4.5-4.5-4.5-4.8 0-0.3 0.9-1.5 2-2.7 1.1-1.2 2-2.5 2-2.9 0-1-13.8-7.9-15.6-7.9-1.9 0-1.8-0.7 1.1-4.4 1.4-1.8 2.5-3.8 2.5-4.4 0-1.6-10.3-6.1-16.7-7.3-3.2-0.6-8.2-0.8-11.1-0.4-5.4 0.7-5.5 0.6-4.8-1.7 0.4-1.2 1-4 1.3-6 0.5-3.5 0.4-3.8-1.9-3.8-3.8 0-13.7 2.9-18.9 5.5-2.7 1.3-5.1 2.1-5.3 1.6-0.3-0.4 0.6-4.9 1.9-10 1.3-5.1 2.6-11.5 3-14.2 0.8-5.9 0.3-6.1-9.3-2.3-20.4 8.2-37.4 21.9-50 40.2-4.7 6.8-5.8 7.7-13.2 11.4-4.4 2.2-9 5.2-10.1 6.7-3.3 4.3-12 18.2-13 20.8-0.5 1.3-2.3 3.2-4.1 4.1-1.7 0.9-4.9 3.2-7 5.1-8.5 7.4-10.2 25.6-4.1 43.6 5.2 15.3 5.3 16 3.6 21.3-1.3 3.9-4.3 7.4-17.2 20.2-12.1 11.9-16.3 16.8-18.4 21.2-14.4 30.2-1.9 64.1 32 86.8 5.7 3.9 11.5 7.3 12.8 7.6 1.4 0.3 2.5 1 2.5 1.5 0 0.5-1.6 6.4-3.6 13.2-9.1 30.7-9.7 48.4-2.3 64.2 2.9 6.2 10.7 14.6 16.3 17.5 4.1 2.2 4.4 2.7 3.9 5.5-1 5.1-4.8 14.4-11.6 28.5-6.1 12.6-7.3 16.6-6.9 23 0.4 4.8 24.4 33.8 58.5 70.2l23.1 24.7 4.5-4.2c2.5-2.3 9.8-8.5 16.1-13.7z"/>
		<path class="s1" d="m304.3 572.8c-9.5-9.9-15.8-19.3-25-37.1-5.4-10.3-10.6-19.8-11.6-21-1.8-2.1-1.8-2-1.2 7.2 0.5 8.4 0.4 9.3-0.9 8.2-1.9-1.6-13.8-21.5-19.6-32.6l-4.2-8 5.1-13.7c2.8-7.5 6-17.5 7.2-22.2l2.1-8.4 5.2 0.4c36.1 3 68.4 3.2 94.4 0.5 21-2.2 25.7-3.8 33.5-11.8 14.6-14.8 17.8-36.6 10.6-72.8-1.1-5.5-2.3-13.9-2.6-18.7-0.7-9.9-0.7-9.8 13.1-33.6 13.9-23.9 14.2-25 10.6-30.9-3.2-5.3-8.3-5.3-28.4 0.2-7.6 2.1-10.4 2.4-12.2 1.7-2.4-1.2-9-13.5-10-18.9l-0.6-3.3 4.4 0.6c10 1.4 19.8-4.1 25.2-14.1 1.9-3.6 2.1-5.5 2-18-0.1-15.1-1.6-22-7.1-31.4l-2.5-4.3 3.6-3.7c2-2 3.6-4.3 3.6-5.1 0-2.2-4.3-10.3-5.7-10.8-3.4-1-8.2 8.9-19.7 40.8-7.8 21.8-10.8 26-18.4 26-5.6 0-13-3.9-27.9-14.8-6-4.3-11.8-8.4-13.1-9.1-2.6-1.4-2.3-1.6-19.2 11.3-10.9 8.2-18.8 12.6-22.9 12.6-3.1 0-8.2-3.4-10.9-7.4-1.2-1.7-5.8-12.6-10.2-24.1-4.5-11.6-9.5-23.8-11.2-27.2-2.7-5.5-3.3-6.1-5-5.2-2.3 1.2-3.8 4.9-3.8 9.2 0 2.1 1 4.1 3.2 6.4l3.1 3.2-1.6 5.8c-3.6 12.1-4.7 19.2-4.7 29.9 0 10.1 0.2 11.5 2.8 16.5 3.8 7.6 10.9 12.4 19.7 13.4l6.4 0.7-0.6 3.1c-0.9 4.6-5.1 13.8-7.4 16.3-2.2 2.4-3 2.3-18.6-1.4-9.4-2.3-14.6-1.7-17.5 2-3 3.7-1.5 8.8 7.8 27.2 4.8 9.3 9 18.2 9.5 19.9 1.1 4 0.1 7.7-2.1 7.7-3.2 0-16.4-9.6-23.5-17.1-8.4-8.8-11.6-14.1-15.8-25.7-2.9-7.9-3.1-9.8-3.2-20.7 0-19.8 2.9-25.2 20.4-38.5 13.9-10.5 16.1-13.7 16.8-24.7 0.4-6.1-0.1-10.6-2.1-20.4-3.2-15.6-3.4-25.4-0.6-30.9 1.2-2.3 4.8-6.2 8.5-9.1 5.5-4.3 7.1-6.3 10.5-13.2 4.5-9.2 11.2-17.7 14-17.7 1.1 0 2.8 1.6 4.1 4 2.6 4.6 3.2 4.3 4.8-2.2 1.9-8 3-10.2 4.4-8.9 1.1 0.8 2.4-1 6.1-8.2 2.5-5 5.8-10.5 7.1-12.2l2.5-3-0.7 3.8c-0.3 2-0.1 3.7 0.4 3.7 0.5 0 2.5-2.1 4.5-4.8 7-9.1 24.3-24.2 27.9-24.2 0.3 0-0.5 4.2-1.8 9.3-1.3 5-2.7 13.7-3 19.2l-0.6 9.9 7.7-7c7.5-6.9 18.2-14.2 19.1-13.2 0.3 0.3-0.3 3.5-1.2 7.1-1 3.6-1.5 6.8-1.3 7.1 0.3 0.2 2.7 0 5.3-0.6 5.8-1.2 22.2-0.7 23.6 0.7 0.7 0.7-1.7 2.7-7.1 6-4.5 2.8-8.3 5.5-8.5 6.1-0.3 0.8 3 1.3 10.4 1.6 5.9 0.3 12.2 1.1 13.8 1.8l3 1.3-2.7 1c-1.6 0.6-2.8 1.3-2.8 1.6 0.1 0.3 2.4 2 5.2 3.6 6.3 3.6 11.6 10.3 12.4 15.6 0.6 3.4 1.4 4.5 5.8 7.3 6.3 4 13.3 11.5 14.2 15.2 0.4 1.5 0.3 10.2-0.1 19.3-1.2 23.8-1 25.6 2.7 33.1 2.9 5.7 4.2 7.1 11.2 11.7 4.3 2.9 11.1 7 15 9.2 17.3 9.5 21.3 16.7 23.1 41.1 0.8 10.2-0.7 20.6-3.9 27.5-6.5 14.2-20.1 26.5-39.7 36.1-6.5 3.3-12.1 6.6-12.3 7.4-0.3 0.8-0.8 3.4-1.1 5.8l-0.7 4.3 3.9-1.6c2.1-0.9 7.1-3.4 11.2-5.6 4-2.2 7.6-3.7 7.9-3.5 0.2 0.3-1.6 5.1-4.1 10.8-5.3 11.8-8.6 21.9-12.1 36.8-5.6 24-6 27.4-6.1 61.6-0.1 31.3-0.1 32.1-2.4 36.5-8.4 16.3-32.4 47.9-34.7 45.7-0.3-0.4 0.9-3.8 2.6-7.8 1.7-3.9 3-7.6 2.8-8.2-0.2-0.5-3 2-6.2 5.6-9.1 10.4-55.3 52.6-57.5 52.6-0.4 0-2.1-1.5-3.8-3.2z"/>
		<path class="s1" d="m281 439.9c1.4-0.6 7.2-2.2 13-3.6 8.9-2.1 12.3-2.4 22-2.1 11.5 0.4 32 4.2 32 6 0 0.4-15.6 0.8-34.7 0.7-24.4 0-34.1-0.3-32.3-1z"/>
		<path fill-rule="evenodd" class="s1" d="m252.3 434.6c-12.8-4.2-20.8-15.2-23.3-31.7-1.4-9.9-0.1-20.7 4.9-40.4 6.2-24 7.4-30.9 7.3-43.5-0.1-12-1.2-17-5.3-23.7-2.2-3.5-6.5-7-7.5-6-0.3 0.3 0.2 2 1.2 3.8 2.2 4.4 5.4 15.7 5.4 19.4 0 2.6-0.6 2-4.6-5-10.6-18.4-12-22.7-8.8-25.9 3.4-3.4 11-1.7 21.9 5.1 3.8 2.4 7.7 4.3 8.7 4.3 2.4 0 6.1-5.2 10.4-14.6 3-6.3 3.8-9.4 4.2-15.7l0.5-7.7 6-3.7c5.2-3.2 18.8-13.1 34.1-25 2.2-1.8 4.7-3 5.4-2.8 0.8 0.3 6.5 4.3 12.7 9 15.5 11.7 27.5 19.5 30.8 20.2 2.1 0.4 2.7 1.1 2.7 3.2 0.1 5.2 3.1 16.8 5.9 22.6 6.6 13.4 12.2 15 27.6 7.6 10.6-5 18-6.3 22-3.7 4.4 2.9 4.4 3.1-10.4 28.6-6 10.4-7.1 11.8-6.5 8.5 1.1-6.1 5-17.1 8.3-23.1 2.5-4.6 2.7-5.4 1.2-5.4-4.3 0-13.7 14.5-16.5 25.6-2.7 10.4-2.1 24.4 1.9 46.5 4.7 25.4 5.2 33.5 3.1 43-0.9 4.1-2.7 9.7-4 12.4-2.9 6.4-10.6 13.9-16.2 16.1-6.4 2.4-20.7 1.4-35.9-2.6-8.4-2.2-15.2-3.4-22.5-3.7-11.1-0.5-11.4-0.5-34.4 5.6-14.2 3.8-24.4 4.7-30.3 2.7zm42-148.1c1.5-4.3-0.8-12.9-4.4-16.5q-6.1-6-9.9 0.3c-2.4 3.9-2.5 6.6-0.5 11.5 4.2 10 12.2 12.6 14.8 4.7zm48.6 1.6c1.5-1.4 3.6-4.8 4.6-7.5 1.7-4.4 1.7-5.2 0.4-9-1.2-3.6-1.8-4.1-4.7-4.4-5.9-0.6-11.2 6.8-11.2 15.5 0 9 4.6 11.3 10.9 5.4z"/>
		<path class="s1" d="m249.5 248.6c-7.7-3.3-12.9-14-12.8-26.1 0-6.9 3-19.5 4.6-19.5 1.5 0 4.9 9.5 4.6 13-0.1 1.9-0.3 7.1-0.3 11.5 0 13 4.9 20.5 13.4 20.5 1.2 0 1.8 0.5 1.5 1-0.9 1.4-7.4 1.2-11-0.4z"/>
		<path class="s1" d="m371.8 249.4c-1.7-1.6-0.6-2.4 3.1-2.4 4.4 0 8.3-2.6 10.8-7.3 2.3-4.3 2.3-19.4 0-25.6-1.5-4.2-1.5-4.7 0.5-9.8 2.3-6.3 3.4-6 6.6 1.6 6.6 15.3 3.8 34.3-6 40.8-3.9 2.6-13.5 4.4-15 2.7z"/>
	</g>
	<g>
		<path fill-rule="evenodd" class="s2" d="m299.1 590.3c-11.1-11.5-35.6-37.8-42.8-46-10-11.4-24.4-28.5-25.9-30.9-0.8-1.2-4.7-3.9-8.7-6-4-2-12.4-7.3-18.9-11.6-46.4-31.6-79.2-81.6-89.2-136.3-15.5-84.3 20.4-168.7 92.4-216.8 18.9-12.7 17.7-11.4 28.8-30.2 4.8-8 5.9-9.3 9.3-10 1.5-0.4 5-2.4 7.8-4.6 2.7-2.1 5.4-3.9 6-3.9 0.5 0 2.9-2.8 5.2-6.2 2.3-3.5 8.8-10.8 14.3-16.3 10.8-10.6 19.5-16.4 34.4-23 10.6-4.6 14.4-5.3 17.7-3.1 4 2.6 4.8 5.9 3.4 14.3-0.6 4-0.9 7.6-0.6 7.9 0.3 0.3 3.9 0.1 7.9-0.6 10.8-1.6 14.8 0.2 14.8 6.6 0 3 0 3 7.6 4.2 8.5 1.3 14.6 3.7 20 7.8 3.4 2.6 3.6 3.1 3 7-0.5 4.1-0.4 4.3 3.7 6.7 6.7 4 9.9 7.9 9.1 11.1-0.3 1.4-1 2.9-1.6 3.2-0.5 0.3 0.9 2.6 3.2 5 2.2 2.4 4 5 4 5.8 0 0.9 3.8 3.4 9.3 6.2 70.7 35.3 116.7 110.1 116.7 189.7 0 77.4-41.1 147.2-109.2 185.7-6.7 3.8-10.5 7.3-28.5 26.2-24.7 26-26.1 27.3-31.1 26.4-3.2-0.5-4.2-0.1-8.2 3.2-2.5 2.1-9.4 7.8-15.5 12.7-6 4.9-14.4 11.9-18.5 15.6-10.9 9.7-10.7 9.6-19.9 0.2zm32.3-19.1c7.2-5.9 14.2-11.6 15.7-12.7 1.4-1.1 5.2-4 8.3-6.4 5.6-4.3 5.7-4.3 7.7-2.5 2 1.8 2.1 1.8 8.2-4.6 3.4-3.6 14.8-15.4 25.2-26.3 10.9-11.3 19.5-21.1 20.2-23 1.8-4.9 1.5-9.8-1.6-28.8-3.9-22.8-4.5-32.9-3.1-47.4 2.2-23.6 8.9-47.2 19.2-68.5 5.9-12.1 6.5-12.9 17.7-24 6.4-6.3 13.1-13.7 14.9-16.5 7.6-11.5 11-32.3 7.8-47.4-3.7-17.3-11.5-27.3-31.9-40.8-13.8-9.1-20.3-14.5-24.7-20.5l-2.7-3.7 1.8-7.6c0.9-4.1 2.2-11.4 2.8-16.2 2.8-22.6 0.9-27.8-13.1-36.9-5.9-3.8-6.8-4.8-7.3-8.1-0.7-4.4-3.1-10.3-4.2-10.3-0.5-0.1-1.9-0.9-3.1-2l-2.4-2 2.1-2.6c1.2-1.5 2.1-3 2.1-3.4 0-1.1-7.8-5.5-12.2-6.9-2.1-0.7-3.8-1.6-3.8-1.9 0-0.4 0.9-2 2-3.7 2.9-4.3 2.6-5.2-2.7-7.9-6.6-3.3-15.6-5-22.6-4.2-5.4 0.5-5.8 0.4-5.2-1.2 0.4-0.9 1-3.6 1.2-6 0.5-4.1 0.5-4.2-2.3-4.2-3.8 0-11.8 2.2-17.8 4.9-2.7 1.1-5.2 1.9-5.4 1.6-0.3-0.3 0.4-4.7 1.6-9.8 1.2-5 2.5-11.3 2.8-13.9 0.6-4.6 0.6-4.8-1.7-4.8-3.7 0-18.7 7.1-28.5 13.5-10.3 6.6-20.5 16.7-29 28.5-3.2 4.6-6.6 8.6-7.4 9-0.8 0.5-2.6 1.3-4 1.9-8.6 3.7-12 6.7-17.6 15.6-3.1 5-6.3 10.4-7.2 12.2-0.9 2-3.8 4.6-7.3 6.8-4.7 2.9-6.3 4.6-8.6 9.3-2.6 5.3-2.8 6.5-2.8 17.7 0 11.3 0.3 12.6 3.8 22.5 2 5.8 3.7 12 3.7 13.8 0 6.8-7 16.1-20 26.7-33.5 27.3-29.1 73.1 9.9 102.8 4.2 3.1 10.7 7.3 14.4 9.3 5.1 2.7 6.8 4 6.4 5.3-0.3 0.9-1.9 6.6-3.7 12.6-8.7 29.7-9.2 47.4-1.9 63 2.8 6 11.1 15.1 16.1 17.6 2.8 1.4 3.8 2.6 3.8 4.4 0 3.7-4.7 15.9-11 28.5-6.9 13.8-8.5 18.6-7.6 23.3 1.2 6.4 27 37.4 60.9 73.4l21 22.2 5.1-4.5c2.8-2.5 10.9-9.3 18-15.2z"/>
		<path class="s2" d="m304 571.7c-9.9-10.8-15.3-19-24.5-36.5-14-26.7-12.9-25.5-13.5-14.8l-0.5 8.9-4.6-6.9c-4.6-6.9-14.9-25.5-14.9-26.8 0-0.4 0.4-0.5 0.8-0.2 0.5 0.3 0.7-0.7 0.5-2.2-0.4-2.4 8.2-29.5 10.8-34.4 0.5-1 2.1-1.8 3.5-1.8 1.4 0 10.9 4.4 21.2 9.7 31.6 16.3 29.8 15.6 36.1 15.1 4.4-0.3 8.9-2 20.6-7.7 8.3-4 18.4-8.6 22.5-10.3 14.9-5.9 24.4-13.6 30-24.2 1.4-2.5 2.8-4.6 3.2-4.6 0.9 0 1.5 6.2 2.9 30l1.2 19.6-5.2 11.4c-6.7 14.9-20.4 33.6-23.7 32.3-1-0.4-0.9-1.5 0.6-5.4 1.1-2.7 2-5.6 2-6.3 0-0.7-8.7 7.3-19.2 17.8-10.6 10.5-23.1 22.4-27.8 26.3-4.7 4-10.6 9.1-13.2 11.4l-4.8 4.1z"/>
		<path class="s2" d="m281.2 440c0.9-0.6 6.8-2.2 13-3.6 9.6-2.2 13-2.5 22.3-2.1 10.5 0.4 28.9 3.9 30.9 5.8 0.6 0.5-13.3 0.9-33.5 0.9-23.1-0.1-33.8-0.4-32.7-1z"/>
		<path fill-rule="evenodd" class="s2" d="m253 434.7c-13-3.7-21.5-15-23.9-32.1-1.3-9.2 0.3-21.2 5.8-43.5 8-32.1 8.7-48.8 2.4-60.9-2.7-5.2-7.6-10.2-8.9-9-0.3 0.3 0.2 2.1 1.2 3.9 2.2 4.4 5.4 15.7 5.4 19.4 0 2.6-0.6 1.9-4.6-5-10.6-18.5-12-22.7-8.8-25.9 3.4-3.4 11-1.7 21.9 5.1 3.8 2.4 7.7 4.3 8.7 4.3 2.4 0 6.1-5.2 10.4-14.6 3-6.3 3.8-9.4 4.2-15.7l0.5-7.7 6-3.7c5.2-3.2 18.8-13.1 34.1-25 2.2-1.8 4.7-3.1 5.4-2.8 0.7 0.3 7.4 5 14.8 10.6 15.5 11.6 27 18.9 29.6 18.9 1.3 0 1.8 0.8 1.8 2.8 0.1 5.3 3 16.8 5.9 22.7 6.6 13.4 12.2 15 27.6 7.6 10.6-5 18-6.3 22-3.7 3.6 2.3 3.2 5-2.1 14.1-2.5 4.4-6.9 12-9.6 16.8-2.8 4.8-5.2 8.6-5.4 8.4-0.9-0.9 5-18.7 8.1-24.4 2.7-5.3 3-6.3 1.6-6.3-4.4 0-13.8 14.7-16.7 26-2.4 9.6-1.4 29 2.6 49.5 4.4 22.4 4.8 30.9 2.1 41.4-1.1 4.6-3.2 10.2-4.5 12.5-3.5 6-10.3 12.3-15.3 14.2-6 2.3-20.7 1.4-33.6-2-20.3-5.5-30.8-6.1-44.2-2.6-23 6.1-27.3 7.1-33.4 7.5-3.9 0.3-8.5 0-11.1-0.8zm39.4-144.6c4-4.4 2.8-14.6-2.4-20.1-4-4.3-7.8-3.9-10.5 1.2-1.8 3.3-1.8 4.1-0.7 8.5 1.3 4.9 5.1 9.9 8.7 11.3 2.9 1.2 3 1.2 4.9-0.9zm49.5-1c2.5-1.6 7.1-10.3 7.1-13.4 0-1-0.7-3.3-1.4-5.2-1.3-3-2-3.5-4.9-3.5-5.8 0-10.7 7.4-10.7 16.1 0 8.5 3.2 10.4 9.9 6z"/>
		<path class="s2" d="m414.3 323.9c-2.3-2.4-1.4-8.1 2.2-14.4 6.3-11 9.8-18 10.6-21.5 1.1-4.5-0.5-10.5-3.4-12.5-3.6-2.5-14.6-1.9-27.2 1.5-12 3.3-16.1 3.7-16.7 1.8-0.2-0.7-0.5-5.4-0.7-10.3l-0.3-9.1 5.2-1.3c9.9-2.5 17.3-12.4 18.6-24.6 0.3-3.3 1.6-8.5 2.9-11.5 1.3-3 2.9-6.8 3.5-8.4l1-2.8 3.9 4.4c3.6 4 14.9 11.6 24.7 16.6 6.5 3.3 14.9 11.6 17.2 17 2.8 6.5 4.2 15.6 4.2 27.7 0 19.3-4.5 29.1-17.4 37.9-4.5 3-10.1 6.5-12.5 7.7-5.2 2.7-14 3.7-15.8 1.8z"/>
		<path class="s2" d="m213.4 319.1c-9.2-4.2-16.1-13.3-21.6-28.8-2.8-7.7-3.2-10.1-3.2-19.3-0.1-19.3 3.7-26.5 21.2-39.3 4.8-3.5 10.1-8 11.8-9.9l3-3.4 2.7 2.7c2.3 2.4 2.7 3.6 2.7 8.6 0.1 12.3 3.4 19.1 12.3 25.4 6.2 4.3 8.7 9.6 8.7 18.5 0 6.2-0.1 6.4-2.6 6.4-1.4 0-6.5-1.1-11.4-2.5-14.1-4-20.1-3-23.4 3.9-2.3 4.9-2.1 6.8 2.3 16.5 3.9 8.8 5.4 15.7 4.2 20-0.9 3.2-1.8 3.4-6.7 1.2z"/>
		<path class="s2" d="m250.6 249c-12.1-3.7-17.4-25.8-10.5-43.7l1.1-2.8 2.1 4c1.8 3.4 2.1 5.8 2.1 17 0.1 11.5 0.4 13.5 2.4 17.2 2.3 4.3 6.4 7.3 10.2 7.3 1.2 0 1.8 0.5 1.5 1-0.7 1.2-4.9 1.2-8.9 0z"/>
		<path class="s2" d="m372.3 249.3c-2.6-1-1.2-2.3 2.5-2.3 6 0 9.8-3 11.6-9.1 2-6.6 2-15.2 0.1-21.5-0.8-2.7-1.5-5.9-1.5-7.1 0-3 3.1-9.4 4.4-9 0.6 0.2 2.2 3 3.6 6.3 2.1 5.1 2.5 7.4 2.5 16.9 0 11.9-1.4 16.3-6.7 21.2-4.4 4.1-12.3 6.3-16.5 4.6z"/>
		<path class="s2" d="m268.5 229.1c-4.9-2.2-11.4-9.2-13.7-14.6-0.9-2.2-4.2-10.5-7.3-18.5-7.6-19.4-13.3-29.7-19.6-35.4l-5-4.5 3.8-4.2c2.1-2.3 5.5-5.3 7.6-6.6 2.9-1.8 4.6-4.1 7.1-9.6 4.2-9.2 12-19.7 14.5-19.7 1.1 0 2.3 1.2 3.1 2.9 0.6 1.6 2 3.7 2.9 4.6 1.7 1.5 1.9 1.2 2.9-3.7 1.7-8.5 3-11.2 4.6-9.9 1.7 1.4 1.8 1.2 4.5-5.8 2.4-6 8.9-16.6 9.8-15.8 0.3 0.3 0.1 2-0.5 3.6-0.6 1.7-0.8 3.1-0.4 3.1 0.4 0 5.6-5.2 11.6-11.6 9.6-10.2 20.8-19.5 22-18.3 0.3 0.2-0.4 3.4-1.4 7.1-2.3 8.4-4.3 24.3-3.4 28l0.6 3 7.1-6.9c7.2-7 15.6-13.3 17.6-13.3 1.4 0 1.4-0.3-0.5 7-0.8 3.4-1.3 6.4-1 6.7 0.3 0.3 4.3 0 8.9-0.7 8.3-1.3 19.1-0.7 20.2 1 0.3 0.4-1.9 2.2-4.8 3.8-5.8 3.3-11.7 7.9-11.7 9.2 0 0.4 5.5 1 12.3 1.2 13.7 0.4 16.6 1.2 12.2 3.6l-2.9 1.5 4 1.9c8.2 4.2 16.4 15 14.9 19.7-0.4 1.4 0.2 2.2 2.7 3.2 3.2 1.3 14.8 11.4 14.8 12.9 0 0.4-1.3 1.3-2.8 1.9-7.9 3.3-14 13.2-23.3 37.5-2.8 7.6-5.7 14.3-6.3 14.9-0.7 0.7-2.6 3.3-4.3 5.8-6.7 9.7-13.4 13.5-22.9 12.7-5.8-0.5-13.5-4-26.7-12.3-9.1-5.7-8.5-5.8-20.9 3.7-9.5 7.2-19.9 12.8-23.6 12.8-1.5 0-4.5-0.9-6.7-1.9z"/>
	</g>
	<g>
		<path fill-rule="evenodd" class="s3" d="m299.1 590.3c-11.1-11.5-35.6-37.8-42.8-46-10-11.4-24.4-28.5-25.9-30.9-0.8-1.2-4.7-3.9-8.7-6-4-2-12.4-7.3-18.9-11.6-46.4-31.6-79.2-81.6-89.2-136.3-15.5-84.3 20.4-168.7 92.4-216.8 18.9-12.7 17.7-11.4 28.8-30.2 4.8-8 5.9-9.3 9.3-10 1.5-0.4 5-2.4 7.8-4.6 2.7-2.1 5.4-3.9 6-3.9 0.5 0 2.9-2.8 5.2-6.2 2.3-3.5 8.8-10.8 14.3-16.3 10.8-10.6 19.5-16.4 34.4-23 10.6-4.6 14.4-5.3 17.7-3.1 4 2.6 4.8 5.9 3.4 14.3-0.6 4-0.9 7.6-0.6 7.9 0.3 0.3 3.9 0.1 7.9-0.6 10.8-1.6 14.8 0.2 14.8 6.6 0 3 0 3 7.6 4.2 8.5 1.3 14.6 3.7 20 7.8 3.4 2.6 3.6 3.1 3 7-0.5 4.1-0.4 4.3 3.7 6.7 6.7 4 9.9 7.9 9.1 11.1-0.3 1.4-1 2.9-1.6 3.2-0.5 0.3 0.9 2.6 3.2 5 2.2 2.4 4 5 4 5.8 0 0.9 3.8 3.4 9.3 6.2 70.7 35.3 116.7 110.1 116.7 189.7 0 77.4-41.1 147.2-109.2 185.7-6.7 3.8-10.5 7.3-28.5 26.2-24.7 26-26.1 27.3-31.1 26.4-3.2-0.5-4.2-0.1-8.2 3.2-2.5 2.1-9.4 7.8-15.5 12.7-6 4.9-14.4 11.9-18.5 15.6-10.9 9.7-10.7 9.6-19.9 0.2zm27.6-14.8c9.6-8.2 26.7-22 33.1-26.8q1.2-1 3.3 0.9c2 1.8 2.1 1.8 9.2-5.6 3.9-4.1 15.1-15.7 25-25.7 10-10.3 18.4-19.8 19.2-21.8 2.1-4.9 1.8-12-1-28-3.6-19.8-4.6-33.2-3.4-47.7 1.9-23.9 8.7-48.2 19.7-70.6 5.4-11.2 6.2-12.3 18.2-24.2 14-13.9 17.8-19.8 21-32.6 2.2-8.6 2.6-20.7 0.9-30-2.5-14.1-12.3-28.2-25.7-37-17.8-11.7-21-13.9-24.6-17.3-2.1-2-5.1-5.3-6.6-7.3l-2.7-3.7 2.4-10.3c1.3-5.9 2.6-15.5 3-22.4 0.5-11.2 0.4-12.5-1.6-16.5-2.2-4.5-6-7.9-14.3-13-4.4-2.7-4.8-3.2-5.4-8.1-0.6-4.6-1.3-5.9-5.1-9.4-4.3-4-4.4-4-2.3-5.9 1.1-1 2-2.4 2-3.1 0-1.5-9.6-7.4-12-7.4-3.7-0.1-4.4-1.7-2.1-5.3 1.1-1.9 2.1-4 2.1-4.6 0-0.7-3-2.6-6.7-4.4-6.2-2.9-7.7-3.2-16.5-3.2-9.3 0-9.7-0.1-9.1-2 1.3-4.2 2-8.4 1.5-8.9-1.8-1.9-14 0.8-21.5 4.6-2.2 1.1-4.1 1.7-4.4 1.5-0.2-0.3 0.7-5.7 2.1-12 1.4-6.3 2.6-12.7 2.6-14.2 0-2.6-0.2-2.7-3.5-2.2-4.6 0.8-18.7 7.5-27.2 12.9-9.8 6.4-18.3 14.7-27.3 26.5-7.4 9.9-8.2 10.7-16.1 14.7-8 4.1-8.6 4.7-13.3 12.2-2.7 4.4-6.1 10-7.6 12.7-1.9 3.4-4.2 5.7-8.1 8-6.5 3.9-9.4 8.6-11.5 18.9-1.9 9.3-1.4 14 3.8 30.4 3.1 9.9 3.9 14 3.4 16.6-1 5.3-6 12.2-14 19.1-12.3 10.7-18.5 17.8-22.2 25.2-3.7 7.5-6.4 18.2-6.4 25.5 0 16.9 11.1 39.1 25.8 51.8 7.1 6.1 19.7 14.7 24.6 16.7 2.7 1.2 3.6 2 3.2 3.3-12.4 41.1-13.6 58.4-5.5 75.7 2.8 6 11.1 15.1 16.1 17.6 2.7 1.4 3.8 2.6 3.8 4.3 0 3.8-3.7 13.3-11.5 29.6-8.1 16.7-8.8 20.1-5.7 26 1.8 3.5 8.7 12.4 23.1 29.5 9.7 11.6 12.5 14.7 36.9 40.7l20.5 21.8 3.2-2.8c1.8-1.5 8.6-7.2 15.2-12.7z"/>
		<path fill-rule="evenodd" class="s3" d="m253 434.7c-14.9-4.2-24-19-24-38.9 0-9.6 1.9-20.4 7.4-41.9 8-31 7.1-50.9-2.5-61.1-3.8-4-6.7-5.1-5.3-2 2.7 6.2 6.4 18.3 6.4 21.2 0 3.4-0.1 3.4-3.7-3-12.4-22.4-13-24.1-9.5-27.3q5.6-4.9 21.6 5.1c3.6 2.3 7.4 4.2 8.5 4.2 6 0 16.1-22.2 16.1-35.4 0-2.7 0.7-3.5 5.1-5.9 4.4-2.5 15.8-10.8 33.7-24.6 3-2.3 5.9-3.8 6.5-3.4 0.7 0.4 5.7 4.1 11.2 8.3 13.1 10 24.7 17.8 30 20.1 4.1 1.8 4.2 2 4.8 7.9 1.4 12.7 8.5 27.4 14.6 30 4.2 1.7 8.4 0.9 18.9-3.9 10-4.5 14.7-5.6 19.1-4.6 4 0.9 5.6 3.7 4.2 7.6-1.2 3.5-18.3 33.1-18.8 32.6-0.8-0.9 5.1-18.8 8.2-24.5 1.8-3.4 2.9-6.5 2.4-6.7-1.5-1-8.9 6.7-12.4 12.9-8.6 15.5-9.2 29.5-2.5 64.1 4.9 25.6 4.8 34.9-0.2 48.1-2.9 7.4-11.3 16.7-17.3 19-6.2 2.3-20.8 1.4-33.8-2-20.3-5.5-30.8-6.1-44.2-2.6-23 6.1-27.3 7.1-33.4 7.5-3.9 0.3-8.5 0-11.1-0.8zm40-144.7c4-4 1.4-17.5-4.1-21.4-3.4-2.3-6.5-2-8.8 1-2.7 3.4-2.7 8.6 0 14.2 2 4.1 6.8 8.2 9.7 8.2 0.6 0 2.1-0.9 3.2-2zm48.1-0.3c4.8-3.1 8.2-10 7.6-15.4-0.6-5.5-2.1-7.3-6.1-7.3-6.2 0-10.6 6.3-10.6 15.3 0 9.8 2.5 11.8 9.1 7.4z"/>
		<path class="s3" d="m192 289.5c-1.8-4.5-2.4-8.7-2.8-16.9-0.5-13.2 1.3-21.4 6.4-28 2.7-3.5 15.5-14 24.4-19.9 1.6-1.1-8.7 9-16.4 16.1-2.7 2.3-5.8 6.5-7.1 9.5-4.5 9.9-5.5 25.8-2.4 38.3 1.8 6.9 0.4 7.4-2.1 0.9z"/>
		<path class="s3" d="m456.1 278c-0.2-20.1-6-32.1-20.5-43-2.8-2-7.1-5.6-9.6-8l-4.5-4.2 4 2.2c2.2 1.3 7.3 4.1 11.4 6.4 4.1 2.2 9.8 6.4 12.6 9.1 7.3 7.1 9 12.5 8.9 28-0.2 13.8-2.2 22.3-2.3 9.5z"/>
		<path class="s3" d="m251.2 249.3c-3.9-0.8-9.7-7.4-12.2-13.8-1.8-5.1-2.1-7.4-1.7-15 0.3-5.9 1.1-10.5 2.4-13.4l1.9-4.4 2.1 5.1c1.9 4.4 2.1 6.4 1.6 14-1 15.5 2.8 24.5 10.8 25.8 2.1 0.4 3.6 1 3.3 1.5-0.5 0.9-4 1-8.2 0.2z"/>
		<path class="s3" d="m373 249c-1.1-0.7-0.4-1.1 2.8-1.6 5.3-0.8 9.6-4.7 11.1-10 1.5-5.5 1.4-15.2-0.4-21-0.8-2.7-1.5-5.9-1.5-7.1 0-3 3.1-9.4 4.4-9 2.5 0.8 5.9 12.2 6.4 21.2 0.5 11-1.9 18.6-7.3 23.4-4.8 4.2-12.2 6.2-15.5 4.1z"/>
		<path class="s3" d="m259.5 161.1c-1.6-2.5-5-6.8-7.5-9.5-3.9-4.2-4.2-4.8-2-4.1 2.7 0.8 5.3 2.7 8.2 6 1.7 2 5.4 11.3 4.7 12-0.2 0.1-1.7-1.8-3.4-4.4z"/>
		<path class="s3" d="m364 159.2c1.4-5.1 4.3-9.5 8-11.9 5.5-3.8 5.4-2.6-0.2 4-2.9 3.4-6.1 7.4-7 8.7l-1.7 2.5z"/>
		<path class="s3" d="m241.1 137.6c-0.1-1.5 6-12.3 9-15.7 2.2-2.5 1.6-1.2-2.1 5.1-6.4 11-6.9 11.7-6.9 10.6z"/>
		<path class="s3" d="m387 135.3c0-2.6-3.7-8.3-7.9-12.2-2.4-2.2-2.8-2.8-1.1-1.9 4.7 2.8 13 15.8 10 15.8-0.5 0-1-0.8-1-1.7z"/>
		<path class="s3" d="m274.6 104c0.7-3 6.1-12.7 7.5-13.5 1.5-1 1 1.1-1 3.6-1 1.3-3 4.7-4.5 7.4-1.5 2.8-2.4 3.9-2 2.5z"/>
	</g>
	<g>
		<path fill-rule="evenodd" class="s4" d="m299.1 590.3c-11.1-11.5-35.6-37.8-42.8-46-10-11.4-24.4-28.5-25.9-30.9-0.8-1.2-4.7-3.9-8.7-6-4-2-12.4-7.3-18.9-11.6-46.4-31.6-79.2-81.6-89.2-136.3-15.5-84.3 20.4-168.7 92.4-216.8 18.9-12.7 17.7-11.4 28.8-30.2 4.8-8 5.9-9.3 9.3-10 1.5-0.4 5-2.4 7.8-4.6 2.7-2.1 5.4-3.9 6-3.9 0.5 0 2.9-2.8 5.2-6.2 2.3-3.5 8.8-10.8 14.3-16.3 10.8-10.6 19.5-16.4 34.4-23 10.6-4.6 14.4-5.3 17.7-3.1 4 2.6 4.8 5.9 3.4 14.3-0.6 4-0.9 7.6-0.6 7.9 0.3 0.3 3.9 0.1 7.9-0.6 10.8-1.6 14.8 0.2 14.8 6.6 0 3 0 3 7.6 4.2 8.5 1.3 14.6 3.7 20 7.8 3.4 2.6 3.6 3.1 3 7-0.5 4.1-0.4 4.3 3.7 6.7 6.7 4 9.9 7.9 9.1 11.1-0.3 1.4-1 2.9-1.6 3.2-0.5 0.3 0.9 2.6 3.2 5 2.2 2.4 4 5 4 5.8 0 0.9 3.8 3.4 9.3 6.2 70.7 35.3 116.7 110.1 116.7 189.7 0 77.4-41.1 147.2-109.2 185.7-6.7 3.8-10.5 7.3-28.5 26.2-24.7 26-26.1 27.3-31.1 26.4-3.2-0.5-4.2-0.1-8.2 3.2-2.5 2.1-9.4 7.8-15.5 12.7-6 4.9-14.4 11.9-18.5 15.6-10.9 9.7-10.7 9.6-19.9 0.2zm14-2.9c2.6-3.2 42.5-36 46.4-38.1 1.6-0.9 2.4-0.8 3.8 0.5 1.8 1.6 3.1 0.4 26.7-23.8 13.7-14 25.6-27 26.5-28.9 2.3-4.5 1.6-16-2-36.1-2.5-14.2-2.7-17-2.2-32.5 0.5-16 1.3-22.2 5.2-38.8q4.2-18.3 14.1-38.4c6.3-13.1 6.6-13.4 19.2-26 13.9-14 17.7-19.8 20.7-32.4 1.9-8.3 1.9-24.8 0-32.4-2.3-9-7.3-18-13.4-24.4-3.2-3.3-12-10-20.2-15.4-14.4-9.4-23.3-17.5-24.4-22.1-0.3-1.1 0.4-6.1 1.5-11.1 1.3-5.6 2.3-14.1 2.6-22.5 0.5-12.8 0.4-13.7-1.8-17.5-2-3.4-9.3-9.3-16.5-13.3-0.8-0.5-2.1-3.5-2.8-6.8-1.1-4.8-2.1-6.5-5.4-9.4l-4.1-3.6 2.1-2.1c1.2-1.2 1.9-2.8 1.6-3.7-0.3-0.8-4-3.1-8.2-5.1l-7.5-3.7 2-2.8c3.8-5.3 2.1-7.5-8.7-11.1-4.7-1.5-8.2-2-13.9-1.7l-7.6 0.3 0.6-2.8c2.1-9.7 2.4-8.7-2.8-8.7-4.6 0-17.6 3.9-20.3 6.1-2.4 2-2.5 0.4-0.3-7.9 2.6-10.5 3.6-19.7 2.2-20.6-2.7-1.6-25.4 9.7-36.2 17.9-7.4 5.7-16.8 15.8-23.5 25.4-3.5 4.9-6.4 8.1-7.9 8.5-1.3 0.3-5.2 2.3-8.6 4.4-5.5 3.3-7.1 5-12.2 13.2-3.3 5.2-6.6 10.7-7.4 12.2-0.8 1.5-3.4 3.9-5.9 5.3-9.3 5.5-12.9 13.4-13 28 0 7.9 0.5 10.6 4.4 22.3 4.1 12.6 4.2 13.6 3.1 17.8-1.5 5.2-8.2 13.2-18.9 22.4-9.5 8.3-17 18.6-20 27.6-10.5 31.6 7.4 65.6 45 85.9l5.6 3-3.3 12c-9.2 32.9-9.7 49.2-2.3 65.1 2.7 5.7 11.5 15.3 16.3 17.9 2 1.1 3.6 2.7 3.6 3.6 0 3.3-5 15.9-11.9 29.9-7.6 15.4-8.7 20.5-5.7 26.1 4 7.6 35.2 43.9 62 72.1 19.8 20.9 19.8 20.9 23.7 16.2z"/>
		<path class="s4" d="m281 440c0.9-0.5 6.8-2.1 13-3.5 9.8-2.3 13.1-2.6 22.5-2.2 10.5 0.4 28.9 3.9 30.9 5.8 0.6 0.5-13.3 0.9-33.5 0.9-21 0-33.8-0.4-32.9-1z"/>
		<path fill-rule="evenodd" class="s4" d="m253 434.7c-14.5-4.1-24-19-24-37.6 0-9.2 1.6-18.5 6.8-39.6 8.6-34.5 8-54.3-1.9-64.7-3.8-4-6.7-5.1-5.3-2 2.7 6.2 6.4 18.3 6.4 21.2 0 3.4-0.1 3.4-3.7-3-12.4-22.4-13-24.1-9.5-27.3q5.6-5 21.6 5.1c3.6 2.3 7.4 4.2 8.5 4.2 6 0 16.1-22.2 16.1-35.4 0-2.7 0.7-3.5 5.1-5.9 4.4-2.5 15.8-10.8 33.7-24.6 3-2.3 5.9-3.8 6.5-3.4 0.7 0.4 5.7 4.1 11.2 8.3 13.1 10 24.7 17.8 30 20.1 4.1 1.8 4.2 2 4.8 7.9 1.4 12.7 8.5 27.4 14.6 30 4.2 1.7 8.4 0.9 18.9-3.9 10-4.5 14.7-5.6 19.1-4.6 4 0.9 5.6 3.7 4.2 7.6-1.2 3.5-18.3 33.1-18.8 32.6-0.8-0.9 5.1-18.8 8.2-24.5 1.8-3.4 2.9-6.5 2.4-6.7-1.5-1-8.9 6.7-12.4 12.9-8.6 15.5-9.2 29.5-2.5 64.1 4.9 25.6 4.8 34.9-0.2 48.1-2.9 7.4-11.3 16.7-17.3 19-6.2 2.3-20.8 1.4-33.8-2-20.3-5.5-30.8-6.1-44.2-2.6-23 6.1-27.3 7.1-33.4 7.5-3.9 0.3-8.5 0-11.1-0.8zm40-144.7c4-4 1.4-17.5-4.1-21.4-3.4-2.3-6.5-2-8.8 1-2.7 3.4-2.7 8.6 0 14.2 2 4.1 6.8 8.2 9.7 8.2 0.6 0 2.1-0.9 3.2-2zm48.1-0.3c4.8-3.1 8.2-10 7.6-15.4-0.6-5.5-2.1-7.3-6.1-7.3-6.2 0-10.6 6.3-10.6 15.3 0 9.8 2.5 11.8 9.1 7.4z"/>
	</g>
	<g>
		<path fill-rule="evenodd" class="s5" d="m299.1 590.3c-22.1-22.9-42.3-45-58.1-63.9-5-6-10.9-12.9-13.1-15.4-2.1-2.4-3.9-4.8-3.9-5.2 0-0.4-1.3-0.8-2.9-0.8-3 0-15.9-7.9-27.6-16.9-30.3-23.2-55.8-57.1-67.9-90.1-1.5-4.1-3.2-8.4-3.6-9.5-1.8-3.9-6.9-23.2-8.4-31.5-12-65.8 10.1-136.5 57.6-184.2 10.3-10.4 19-17.9 27.3-23.5 3.3-2.2 7.1-5 8.4-6.2 1.3-1.1 2.7-1.8 3.1-1.6 0.4 0.3 1-0.3 1.3-1.4 0.2-1 3.4-3.7 7.1-6.1 3.6-2.3 6.6-4.6 6.6-4.9 0-0.6 11.7-19.9 14.4-23.8 0.9-1.2 2.9-2.4 4.5-2.8 1.7-0.3 5.2-2.4 8-4.6 2.7-2.1 5.4-3.9 6-3.9 0.5 0 2.9-2.8 5.2-6.2 2.3-3.5 8.8-10.8 14.3-16.3 10.8-10.6 19.5-16.4 34.4-23 10.6-4.6 14.4-5.3 17.7-3.1 4 2.6 4.8 5.9 3.4 14.3-0.6 4-0.9 7.6-0.6 7.9 0.3 0.3 3.9 0.1 7.9-0.6 10.8-1.6 14.8 0.2 14.8 6.6 0 3 0 3 7.6 4.2 8.5 1.3 14.6 3.7 20 7.8 3.4 2.6 3.6 3.1 3 7-0.5 4.1-0.4 4.3 3.7 6.7 6.7 4 9.9 7.9 9.1 11.1-0.3 1.4-1 2.9-1.6 3.2-0.5 0.3 0.9 2.6 3.2 5 3.2 3.5 4 5.1 4 8.1 0 2.4 0.3 3.3 0.8 2.5 1.1-1.7 3.6-0.7 15.3 6.1 37.7 21.8 64.5 49 84.2 85.7 13 24.1 22.4 55.2 24.2 79.5 0.1 2.2 0.6 8.1 1 13 0.8 10.3-0.8 32.6-3 43-0.9 3.9-2 9.2-2.5 11.9-2.9 14.4-14.9 44.2-23.7 58.7-1.5 2.6-4.2 7.1-6 10-3.9 6.6-22.2 28.6-29.4 35.4-15.3 14.4-39.2 31.5-44.1 31.5-0.7 0-9.4 8.4-19.3 18.8-9.9 10.3-21.9 22.7-26.8 27.6-8.8 8.8-8.9 8.8-13 8.3-3.8-0.5-4.7-0.2-8.7 3.2-2.5 2-9.4 7.7-15.5 12.6-6 4.9-14.4 11.9-18.5 15.6-10.9 9.7-10.7 9.6-19.9 0.2zm14-2.9c2.6-3.2 42.5-36 46.4-38.1 1.6-0.9 2.4-0.8 3.8 0.5 1.8 1.6 3.1 0.4 26.7-23.8 13.7-14 25.6-27 26.5-28.9 2.3-4.5 1.6-16-2-36.1-2.5-14.2-2.7-17-2.2-32.5 0.5-16 1.3-22.2 5.2-38.8q4.2-18.3 14.1-38.4c6.3-13.1 6.6-13.4 19.2-26 13.9-14 17.7-19.8 20.7-32.4 1.9-8.3 1.9-24.8 0-32.4-2.3-9-7.3-18-13.4-24.4-3.2-3.3-12-10-20.2-15.4-14.4-9.4-23.3-17.5-24.4-22.1-0.3-1.1 0.4-6.1 1.5-11.1 1.3-5.6 2.3-14.1 2.6-22.5 0.5-12.8 0.4-13.7-1.8-17.5-2-3.4-9.3-9.3-16.5-13.3-0.8-0.5-2.1-3.5-2.8-6.8-1.1-4.8-2.1-6.5-5.4-9.4l-4.1-3.6 2.1-2.1c1.2-1.2 1.9-2.8 1.6-3.7-0.3-0.8-4-3.1-8.2-5.1l-7.5-3.7 2-2.8c3.8-5.3 2.1-7.5-8.7-11.1-4.7-1.5-8.2-2-13.9-1.7l-7.6 0.3 0.6-2.8c2.1-9.7 2.4-8.7-2.8-8.7-4.6 0-17.6 3.9-20.3 6.1-2.4 2-2.5 0.4-0.3-7.9 2.6-10.5 3.6-19.7 2.2-20.6-2.7-1.6-25.4 9.7-36.2 17.9-7.4 5.7-16.8 15.8-23.5 25.4-3.5 4.9-6.4 8.1-7.9 8.5-1.3 0.3-5.2 2.3-8.6 4.4-5.5 3.3-7.1 5-12.2 13.2-3.3 5.2-6.6 10.7-7.4 12.2-0.8 1.5-3.4 3.9-5.9 5.3-9.3 5.5-12.9 13.4-13 28 0 7.9 0.5 10.6 4.4 22.3 4.1 12.6 4.2 13.6 3.1 17.8-1.5 5.2-8.2 13.2-18.9 22.4-9.5 8.3-17 18.6-20 27.6-10.5 31.6 7.3 65.4 45 85.9 5.5 3 5.5 3 4.7 6.3-0.7 2.7-1.2 3.1-2.3 2.2-1.1-0.9-1.2-0.7-0.9 0.8 0.3 1-1.1 8.8-3.2 17.3-5.8 24.4-5.3 41.3 1.8 55.4 2 3.9 13.3 16.6 14.1 15.8 1-0.9 5.7 2.2 5.7 3.7 0 3.4-5 15.9-11.9 30-7.6 15.4-8.7 20.5-5.7 26.1 4 7.6 35.2 43.9 62 72.1 19.8 20.9 19.8 20.9 23.7 16.2z"/>
	</g>
	<g>
		<path class="s6" d="m299.1 590.3c-22.2-22.9-42.3-45.1-58.1-63.9-5-6-10.7-12.7-12.7-14.9-5.9-6.5-8.6-13.5-8.1-20.8 0.4-5.2 1.7-8.9 8-22.2 4.2-8.8 8.4-18.9 9.3-22.5 0.9-3.6 1.8-6.6 2-6.8 0.8-0.8 5.5 2.4 5.5 3.8 0 3.4-5 15.9-11.9 30-7.6 15.4-8.7 20.5-5.7 26.1 4 7.6 35.2 43.9 62 72.1 19.8 20.9 19.8 20.9 23.7 16.2 2.6-3.2 42.5-36 46.4-38.1 1.6-0.9 2.4-0.8 3.8 0.5 1.8 1.6 3.1 0.4 26.7-23.8 13.7-14 25.6-27 26.5-28.9 2.3-4.5 1.6-16-2-36.1-2.5-14.2-2.7-17-2.2-32.5 0.5-16 1.3-22.2 5.2-38.8q4.2-18.3 14.1-38.4c6.3-13.1 6.6-13.4 19.2-26 13.9-14 17.7-19.8 20.7-32.4 1.9-8.3 1.9-24.8 0-32.4-2.3-9-7.3-18-13.4-24.4-3.2-3.3-12-10-20.2-15.4-14.4-9.4-23.3-17.5-24.4-22.1-0.3-1.1 0.4-6.1 1.5-11.1 1.3-5.6 2.3-14.1 2.6-22.5 0.5-12.8 0.4-13.7-1.8-17.5-2-3.4-9.3-9.3-16.5-13.3-0.8-0.5-2.1-3.5-2.8-6.8-1.1-4.8-2.1-6.5-5.4-9.4l-4.1-3.6 2.1-2.1c1.2-1.2 1.9-2.8 1.6-3.7-0.3-0.8-4-3.1-8.2-5.1l-7.5-3.7 2-2.8c3.8-5.3 2.1-7.5-8.7-11.1-4.7-1.5-8.2-2-13.9-1.7l-7.6 0.3 0.6-2.8c2.1-9.7 2.4-8.7-2.8-8.7-4.6 0-17.6 3.9-20.3 6.1-2.4 2-2.5 0.4-0.3-7.9 2.6-10.5 3.6-19.7 2.2-20.6-2.7-1.6-25.4 9.7-36.2 17.9-7.4 5.7-16.8 15.8-23.5 25.4-3.5 4.9-6.4 8.1-7.9 8.5-1.3 0.3-5.2 2.3-8.6 4.4-5.5 3.3-7.1 5-12.2 13.2-3.3 5.2-6.6 10.7-7.4 12.2-0.8 1.5-3.4 3.9-5.9 5.3-9.3 5.5-12.9 13.4-13 28 0 7.9 0.5 10.6 4.4 22.3 4.1 12.6 4.2 13.6 3.1 17.8-1.5 5.2-8.2 13.2-18.9 22.4-9.5 8.3-17 18.6-20 27.6-10.5 31.6 7.3 65.4 45 85.9 5.4 2.9 5.5 3.1 4.7 6.2l-0.8 3.2-7.8-4.6c-32.3-19-48.4-41.5-49.9-69.8-1.2-22.3 6-36.9 27.1-55.3 6-5.3 11.7-11.1 13.2-13.8l2.7-4.6-4.4-13.6c-4.1-12.7-4.4-14.4-4.3-24.2 0-9.1 0.4-11.5 3-18.5 2.9-7.6 3.4-8.2 9.3-12.2 6.3-4.2 7.2-5.4 16.9-21.8 4.8-8 5.9-9.3 9.3-10 1.5-0.4 5-2.4 7.8-4.6 2.7-2.1 5.4-3.9 6-3.9 0.5 0 2.9-2.8 5.2-6.2 2.3-3.5 8.8-10.8 14.3-16.3 10.8-10.6 19.5-16.4 34.4-23 10.6-4.6 14.4-5.3 17.7-3.1 4 2.6 4.8 5.9 3.4 14.3-0.6 4-0.9 7.6-0.6 7.9 0.3 0.3 3.9 0.1 7.9-0.6 10.8-1.6 14.8 0.2 14.8 6.6 0 3 0 3 7.6 4.2 8.5 1.3 14.6 3.7 20 7.8 3.4 2.6 3.6 3.1 3 7-0.5 4.1-0.4 4.3 3.7 6.7 6.7 4 9.9 7.9 9.1 11.1-0.3 1.4-1 2.9-1.6 3.2-0.5 0.3 0.9 2.6 3.2 5 3 3.3 4 5.2 4 7.7 0 2.9 0.6 3.8 5.1 6.6 6.2 4.1 11.2 9.2 13.3 13.6 2.3 4.9 2.1 21.1-0.6 37.8l-2.2 13.7 4 4.1c2.1 2.3 10.3 8.3 18 13.4 7.8 5.1 16.8 11.9 20.1 15.2 7 7 13.5 19 15.9 28.9 2.3 9.8 2 25.9-0.5 35.6-3.6 13.9-8.2 21.1-23.2 35.8-10.4 10.2-10.9 11-17.2 24-8.8 18.3-13.6 33.7-17.3 55.5-2.7 15.9-2.1 31.4 2 55.8 3.8 22.3 3.8 26.5-0.2 34.2-1.6 3.3-24.9 28.2-46.5 49.9-8.8 8.8-8.9 8.8-13 8.3-3.8-0.5-4.7-0.2-8.7 3.2-2.5 2-9.4 7.7-15.5 12.6-6 4.9-14.4 11.9-18.5 15.6-10.9 9.7-10.7 9.6-19.9 0.2z"/>
		<path fill-rule="evenodd" class="s6" d="m250.9 422.1c-7.2-2.4-13.3-7.7-18.5-16.2-2.8-4.6-3.4-6.7-3.4-11 0-7.1 2-17.8 6.9-37.5 5.1-20.9 6.5-30.4 5.9-42.2-0.8-15.8-7-26-16.7-27.7-4.8-0.8-5.6-1.7-4.1-4.6 1.1-1.9 1.9-2.1 7.3-1.7 5.2 0.4 7.4 1.2 13.8 5.1 11.6 7.1 12.9 6.6 19.7-6.8 4-8.1 6.2-15.8 6.2-22.2 0-3 0.4-5.3 1.1-5.3 1.7 0 16.7-10.3 29.6-20.4 6.7-5.3 12.8-9.6 13.5-9.6 0.8 0 6.5 3.9 12.8 8.6 14.7 11.1 28.1 20 31.4 20.8 2.3 0.6 2.6 1.2 2.6 4.9 0 7.9 4.6 20.8 9.7 27.5 1.4 1.9 4.1 4.1 6 4.9 4.1 1.7 6 1.2 19.7-4.9 10.5-4.8 17.3-5.5 20.6-2.3 1.8 1.8 1.9 2.5 0.9 5.3-1 2.8-3.9 4.6-3.9 2.4 0-0.5-1.4-0.9-3.1-1-4.4-0.1-9.8 5.7-14.8 16-7.3 14.9-7.8 29.3-1.9 57.8 2.6 12.8 3.2 17.9 3.2 29l0.1 13.5-7.6 7.7c-12.3 12.4-16.5 13-50.5 6.3-9.8-1.9-20.4-3.5-23.4-3.5-3 0-13.1 1.6-22.5 3.6-17.4 3.6-35.4 5.2-40.6 3.5zm42.5-132.3c1.8-2.6 2.1-10.3 0.5-14.5-1.6-4.4-5.9-8.3-9-8.3-8.8 0-9.4 15.2-1 22.3 3.9 3.3 7.5 3.5 9.5 0.5zm48.6-0.4c6.8-5.8 9.1-15.9 4.7-21-2-2.2-2.8-2.5-5.5-1.9-7.7 1.6-13.2 18-8.1 24.2 1.8 2.1 5.5 1.5 8.9-1.3z"/>
	</g>
	<g>
		<path class="s7" d="m299.1 590.3c-22-22.8-42.1-44.9-58.1-63.9-5.1-6-10.8-12.9-12.8-15.2-6.4-7.6-7.7-10.8-7.6-19.2 0-7.2 0.3-8 7.1-22 4-8 8.2-18.1 9.4-22.5 1.3-4.4 2.4-8.1 2.5-8.3 0.5-1 5.4 2.4 5.4 3.8 0 3.4-5 15.9-11.9 30-7.6 15.4-8.7 20.5-5.7 26.1 4 7.6 35.2 43.9 62 72.1 19.8 20.9 19.8 20.9 23.7 16.2 2.6-3.2 42.5-36 46.4-38.1 1.6-0.9 2.4-0.8 3.8 0.5 1.8 1.6 3.1 0.4 26.7-23.8 13.7-14 25.6-27 26.5-28.9 2.3-4.5 1.6-16-2-36.1-2.5-14.2-2.7-17-2.2-32.5 0.5-16 1.3-22.2 5.2-38.8q4.2-18.3 14.1-38.4c6.3-13.1 6.6-13.4 19.2-26 13.9-14 17.7-19.8 20.7-32.4 1.9-8.3 1.9-24.8 0-32.4-2.3-9-7.3-18-13.4-24.4-3.2-3.3-12-10-20.2-15.4-14.4-9.4-23.3-17.5-24.4-22.1-0.3-1.1 0.4-6.1 1.5-11.1 1.3-5.6 2.3-14.1 2.6-22.5 0.5-12.8 0.4-13.7-1.8-17.5-2-3.4-9.3-9.3-16.5-13.3-0.8-0.5-2.1-3.5-2.8-6.8-1.1-4.8-2.1-6.5-5.4-9.4l-4.1-3.6 2.1-2.1c1.2-1.2 1.9-2.8 1.6-3.7-0.3-0.8-4-3.1-8.2-5.1l-7.5-3.7 2-2.8c3.8-5.3 2.1-7.5-8.7-11.1-4.7-1.5-8.2-2-13.9-1.7l-7.6 0.3 0.6-2.8c2.1-9.7 2.4-8.7-2.8-8.7-4.6 0-17.6 3.9-20.3 6.1-2.4 2-2.5 0.4-0.3-7.9 2.6-10.5 3.6-19.7 2.2-20.6-2.7-1.6-25.4 9.7-36.2 17.9-7.4 5.7-16.8 15.8-23.5 25.4-3.5 4.9-6.4 8.1-7.9 8.5-1.3 0.3-5.2 2.3-8.6 4.4-5.5 3.3-7.1 5-12.2 13.2-3.3 5.2-6.6 10.7-7.4 12.2-0.8 1.5-3.4 3.9-5.9 5.3-9.3 5.5-12.9 13.4-13 28 0 7.9 0.5 10.6 4.4 22.3 4.1 12.6 4.2 13.6 3.1 17.8-1.5 5.2-8.2 13.2-18.9 22.4-9.5 8.3-17 18.6-20 27.6-10.5 31.6 7.3 65.4 45 85.9 5.4 2.9 5.5 3.1 4.7 6.2l-0.8 3.1-9.1-5.4c-25.3-15.2-39.9-32.4-46.5-54.9-2.7-9.1-2.5-26 0.3-35 3.2-9.9 8.7-18.7 16.7-26.4 18.9-18.1 22.5-22 23.2-24.5 0.4-1.9-0.5-6.2-3-13.9-6.6-20.4-7-29.1-1.7-44.2 2.6-7.7 3-8.1 9-12.2 6.3-4.2 7.2-5.4 16.9-21.8 4.8-8 5.9-9.3 9.3-10 1.5-0.4 5-2.4 7.8-4.6 2.7-2.1 5.4-3.9 6-3.9 0.5 0 2.9-2.8 5.2-6.2 2.3-3.5 8.8-10.8 14.3-16.3 10.8-10.6 19.5-16.4 34.4-23 10.6-4.6 14.4-5.3 17.7-3.1 4 2.6 4.8 5.9 3.4 14.3-0.6 4-0.9 7.6-0.6 7.9 0.3 0.3 3.9 0.1 7.9-0.6 10.8-1.6 14.8 0.2 14.8 6.6 0 3 0 3 7.6 4.2 8.5 1.3 14.6 3.7 20 7.8 3.4 2.6 3.6 3.1 3 7-0.5 4.1-0.4 4.3 3.7 6.7 6.7 4 9.9 7.9 9.1 11.1-0.3 1.4-1 2.9-1.6 3.2-0.5 0.3 0.9 2.6 3.2 5 3 3.3 4 5.2 4 7.7 0 2.9 0.6 3.9 4.3 6.3 6.3 4.2 11.6 9.4 13.8 13.6 2.6 5 2.5 19.4-0.1 35.3-1.1 6.6-2 13.2-2 14.6 0 3.5 8.9 11.9 19.5 18.4 22.9 14 32.8 25.7 37.5 44 2.4 9.5 2.7 26 0.5 35.1-3.3 14-8.7 22.5-24.2 37.7-9.2 9.1-10.4 10.8-16 22-9.8 19.6-15.8 39.9-18.9 63.7-1.9 15.2-1.4 23.9 2.7 48 3.7 21.1 3.6 29.4-0.4 36.1-2.4 4.1-26.8 30.2-46.5 49.8-8.3 8.2-8.5 8.3-12.6 7.8-3.7-0.5-4.6-0.2-8.6 3.2-2.5 2-9.4 7.7-15.5 12.6-6 4.9-14.4 11.9-18.5 15.6-10.9 9.7-10.7 9.6-19.9 0.2z"/>
		<path class="s7" d="m247.5 419.6c-5.9-2.7-11.7-8.9-14.7-15.4-1.1-2.6-2.5-5.5-2.9-6.4-1.9-3.8-0.1-16.8 5-36.3 3.6-13.8 4-9.5 0.5 5.2-3.3 13.8-3.5 26.4-0.4 34.5 2.4 6.5 9.5 14 17.1 18.1 4 2.1 4.6 2.7 2.8 2.7-1.3 0-4.6-1.1-7.4-2.4z"/>
		<path class="s7" d="m362 421.6c0-0.2 3.4-1.2 7.5-2.1 5.5-1.2 9.4-2.9 14-6 5.6-3.7 6.2-4 4.3-1.5-5 6-13 9.9-21 10-2.7 0-4.8-0.2-4.8-0.4z"/>
		<path class="s7" d="m252.4 249c-5.2-1.2-9.1-4.7-12.1-10.8-2.4-4.9-2.8-6.9-2.8-14.7 0-8 1.6-16.5 3.5-18.8 0.4-0.4 1.7 1.5 2.9 4.3 1.9 4.4 2.1 5.8 1.2 10.4-1.3 6.8 0.2 17.6 3 22.6 2.3 4.1 5.4 6 9.7 6 2.1 0 2.4 0.2 1.2 1-1.7 1.1-2.2 1.1-6.6 0z"/>
		<path class="s7" d="m374 249c-2.2-0.6-2-0.7 1.5-1.3 5.4-0.9 8.3-3.1 10.6-8.1 2.4-5.2 2.5-16.8 0.3-24.7-1.5-5.4-1.5-6.1 0.1-10.3 1-2.5 2.1-4.6 2.5-4.6 1.1 0 4.8 9.2 6.1 15.1 1.5 7.1 0.5 18-2.2 23.5-3.6 7.5-12 12.1-18.9 10.4z"/>
	</g>
	<g>
		<path class="s8" d="m252.9 249.1c-5.5-1.1-9.5-4.6-12.6-10.9-2.4-4.9-2.8-6.9-2.8-14.7 0-8 1.6-16.5 3.5-18.8 0.4-0.4 1.7 1.5 2.9 4.3 1.9 4.4 2.1 5.8 1.2 10.4-1.3 6.8 0.2 17.6 3 22.6 2.3 4.1 5.4 6 9.7 6 2.1 0 2.4 0.2 1.2 1-0.8 0.5-1.7 0.9-2 0.9-0.3-0.1-2.1-0.4-4.1-0.8z"/>
		<path class="s8" d="m374 249c-2.2-0.6-2-0.7 1.5-1.3 5.4-0.9 8.3-3.1 10.6-8.1 2.4-5.2 2.5-17.2 0.3-24.6-1.3-4.5-1.4-6-0.3-9.2 2-6.3 3.4-6.5 5.8-0.9 4.8 11.3 5.3 25 1 33.7-3.6 7.5-12 12.1-18.9 10.4z"/>
		<text id="NimDrake" style="transform: matrix(1,0,0,1,579,377)" >
			<tspan x="0" y="0" class="t9">N</tspan><tspan  y="0" class="t9">i</tspan><tspan  y="0" class="t9">m</tspan><tspan  y="0" class="t9">D</tspan><tspan  y="0" class="t9">r</tspan><tspan  y="0" class="t9">a</tspan><tspan  y="0" class="t9">k</tspan><tspan  y="0" class="t9">e
</tspan>
		</text>
	</g>
</svg>